/* XPM */
static char *result[] = {
/* columns rows colors chars-per-pixel */
"50 50 195 2 ",
"   c #000046",
".  c #03085B",
"X  c #231A5B",
"o  c #000069",
"O  c #050B67",
"+  c #061769",
"@  c #191563",
"#  c #000075",
"$  c #000972",
"%  c #071B75",
"&  c #1F2367",
"*  c #1A2274",
"=  c #142178",
"-  c #272D6E",
";  c #323D6F",
":  c #212873",
">  c #28307B",
",  c #3B3F7E",
"<  c #000081",
"1  c #101C8A",
"2  c #06029B",
"3  c #081894",
"4  c #062585",
"5  c #0E2487",
"6  c #042E8C",
"7  c #09298B",
"8  c #1A298D",
"9  c #162887",
"0  c #15308C",
"q  c #092895",
"w  c #0C3494",
"e  c #043195",
"r  c #252B81",
"t  c #24358E",
"y  c #273587",
"u  c #313882",
"i  c #222C94",
"p  c #2E3999",
"a  c #253493",
"s  c #303C9C",
"d  c #0017AE",
"f  c #071AAA",
"g  c #1D11A4",
"h  c #001EB9",
"j  c #0F2DAE",
"k  c #1423AA",
"l  c #0637A9",
"z  c #1231AC",
"x  c #1F3EA1",
"c  c #052AB9",
"v  c #222DA9",
"b  c #2935A4",
"n  c #2536AA",
"m  c #3A30A8",
"M  c #2C30B0",
"N  c #384086",
"B  c #3C438D",
"V  c #3E4694",
"C  c #364A97",
"Z  c #0E42A8",
"A  c #1045A8",
"S  c #0343B2",
"D  c #084FB9",
"F  c #1F58B6",
"G  c #1850B9",
"H  c #274EAC",
"J  c #2854A8",
"K  c #314BB7",
"L  c #2550B3",
"P  c #3461B0",
"I  c #454A88",
"U  c #434B9D",
"Y  c #4856A6",
"T  c #535AA6",
"R  c #436CA2",
"E  c #0000C9",
"W  c #0002C3",
"Q  c #072FC0",
"!  c #0B2EC7",
"~  c #083BC3",
"^  c #1939C9",
"/  c #2739C7",
"(  c #0018E9",
")  c #0A1CE8",
"_  c #0F37E7",
"`  c #0032EE",
"'  c #0036E5",
"]  c #0745C5",
"[  c #005ECC",
"{  c #064EDF",
"}  c #0158DA",
"|  c #105BDA",
" . c #2D44C1",
".. c #3549C5",
"X. c #345DD0",
"o. c #0A64D1",
"O. c #0068D2",
"+. c #0061DA",
"@. c #1870D0",
"#. c #117CDA",
"$. c #137AD7",
"%. c #3663D6",
"&. c #1A4CE3",
"*. c #075EED",
"=. c #1E56EA",
"-. c #0D5DF2",
";. c #2A4DE5",
":. c #3846E7",
">. c #2853E2",
",. c #305BEC",
"<. c #2A58F3",
"1. c #0863E6",
"2. c #186AE9",
"3. c #0C7EED",
"4. c #127BEF",
"5. c #0062F3",
"6. c #1D68F1",
"7. c #1C75F2",
"8. c #396CEE",
"9. c #2E7FEB",
"0. c #3C78E3",
"q. c #3467F3",
"w. c #3B79F5",
"e. c #4B5EC0",
"r. c #455AD7",
"t. c #4065EB",
"y. c #4A78ED",
"u. c #4068F0",
"i. c #5390B1",
"p. c #008FEE",
"a. c #0E8BE0",
"s. c #1486E1",
"d. c #1C8DE4",
"f. c #1A99EC",
"g. c #0081F1",
"h. c #148CF4",
"j. c #0093F0",
"k. c #1C96F4",
"l. c #208CEF",
"z. c #248FE5",
"x. c #2698ED",
"c. c #268AF5",
"v. c #3C89F4",
"b. c #3194F9",
"n. c #389EF9",
"m. c #1EA3E9",
"M. c #07A6F4",
"N. c #19A9FF",
"B. c #19B0FC",
"V. c #29A6EC",
"C. c #2FACF6",
"Z. c #2BA4F1",
"A. c #3BA5F6",
"S. c #2AB7F8",
"D. c #3CBDFA",
"F. c #37BDF9",
"G. c #6386C9",
"H. c #6398CC",
"J. c #68AACC",
"K. c #72B5D6",
"L. c #4681EF",
"P. c #4B94EE",
"I. c #5B95ED",
"U. c #539BE5",
"Y. c #4183F5",
"T. c #4A89F5",
"R. c #4E9BF2",
"E. c #4799F9",
"W. c #5699F2",
"Q. c #5AA6ED",
"!. c #49B5EC",
"~. c #4AAFFB",
"^. c #47A9F7",
"/. c #54A9F7",
"(. c #52ADFC",
"). c #5CAEFA",
"_. c #54BFFB",
"`. c #60ABF2",
"'. c #20C0F9",
"]. c #33C7FA",
"[. c #76C0D9",
"{. c #45C5FD",
"}. c #49C7F8",
"|. c #5BCAFB",
" X c #54C9F9",
".X c #45D4FA",
"XX c #4FD3FA",
"oX c #55DBFD",
"OX c #62C1E8",
"+X c #72D5EE",
"@X c #67D9F9",
"#X c #87D2E7",
"$X c #91D9E9",
"%X c #86E2F4",
"&X c #6FC0A0",
/* pixels */
"&X&X&X&X&X&X&X&X&X&X&X&X&X&X&X&X&X&X&X&X&X&X&X&X&X&X&X&X&X&X&X&X&X&X&X&X&X&X&X&X&X&X&X&X&X&X&X&X&X&X",
"&X&X&X&X&X&X&X&X&X&X&X&X&X&X&X&X&X&X&X&X&X&X&X&X&X&X&X&X&X&X&X&X&X&X&X&X&X&X&X&X&X&X&X&X&X&X&X&X&X&X",
"&X&X&X&X&X&X&X&X&X&X&X&X&X&X&X&X&X&X&X&X&X&X&X&X&X&X&X&X&X&X&X&X&X&X&X&X&X&X&X&X&X&X&X&X&X&X&X&X&X&X",
"&X&X&X&X&X&X&X&X&X&X&X&X&X&X&X&X&X&X&X&X&X&X&X&X&X&X&X&X&X&X&X&X&X&X&X&X&X&X&X&X&X&X&X&X&X&X&X&X&X&X",
"&X&X&X&X&X&X&X&X&X&X&X&X&X&X&X&X&X&X&X&X&X&X&X&X&X&X&X&X&X&X&X&X&X&X&X&X&X&X&X&X&X&X&X&X&X&X&X&X&X&X",
"&X&X&X&X&X&X&X&X&X&X&X&X&X&X&X&X&X&X&X&X&X&X&X&X&X&X&X&X&X&X&X&X&X&X&X&X&X&X&X&X&X&X&X&X&X&X&X&X&X&X",
"&X&X&X&X&X&X&X&X&X&X&X&X&X&X&X&X&X&X&X&X&X&X&X&X&X&X&X&X&X&X&X&X&X&X&X&X&X&X&X&X&X&X&X&X&X&X&X&X&X&X",
"&X&X&X&X&X&X&X&X&X&X&X&X&X&X&X&X&X&X&X&X&X&X&X&X&X&X&X&X&X&X&X&X&X&X&X&X&X&X&X&X&X&X&X&X&X&X&X&X&X&X",
"&X&X&X&X&X&X&X&X&X&X&X&X&X&X&X&X&X&X&X&X&X&X&X&X&X&X&X&X&X&X&X&X&X&X&X&X&X&X&X&X&X&X&X&X&X&X&X&X&X&X",
"&X&X&X&X&X&X&X&X&X&X&X&X&X&X&X&X&X&X&X&X&X&X&X&X&X&X&X&X&X&X&X&X&X&X&X&X&X&X&X&X&X&X&X&X&X&X&X&X&X&X",
"&X&X&X&X&X&X&X&X&X&X&X&X&X&X&X&X&X&X&X&X&X&X&X&X&X&X&X&X&X&X&X&X&X&X&X&X&X&X&X&X&X&X&X&X&X&X&X&X&X&X",
"&X&X&X&X&X&X&X&X&X&X&X&X&X&X&X&X&X&X&X&X&X&X&X&X&X&X&X&X&X&X&X&X&X&X&X&X&X&X&X&X&X&X&X&X&X&X&X&X&X&X",
"&X&X&X&X&X&X&X&X&X&X&X&X&X&X&X&X&X&X&X&X&X&X&X&X&X&X&X&X&X&X&X&X&X&X&X&X&X&X&X&X&X&X&X&X&X&X&X&X&X&X",
"&X&X&X&X&X&X&X&X&X&X&X&X&X&X&X&X&X&X&X&X&X&X&X&X&X&X&X&X&X&X&X&X&X&X&X&X&X&X&X&X&X&X&X&X&X&X&X&X&X&X",
"&X&X&X&X&X&X&X&X&X&X&X&X&X&X&X&X&X&X&X&X&X&X&X&X&X&X&X&X&X&X&X&X&X&X&X&X&X&X&X&X&X&X&X&X&X&X&X&X&X&X",
"&X&X&X&X&X&X&X&X&X&X&X&X&X&X&X&X&X&X&X&X&X&X&X&X&X&X&X&X&X&X&X&X&X&X&X&X&X&X&X&X&X&X&X&X&X&X&X&X&X&X",
"&X&X&X&X&X&X&X&X&X&X&X&X&X&X&X&X&X&X&X&X&X&X&X&X&X&X&X&X&X&X&X&X&X&X&X&X&X&X&X&X&X&X&X&X&X&X&X&X&X&X",
"&X&X&X&X&X&X&X&X&X&X&X&X&X&X&X&X&X&X&X&X> * * = 9 8 9 r y &X&X&X&X&X&X&X&X&X&X&X&X&X&X&X&X&X&X&X&X&X",
"&X&X&X&X&X&X&X&X&X&X&X&X&X&X&X&X&X&Xa 8 5 4 6 e 7 w 0 8 a t > &X&X&X&X&X&X&X&X&X&X&X&X&X&X&X&X&X&X&X",
"&X&X&X&X&X&X&X&X&X&X&X&X&X&X&X&Xp i 2 ~ ~ f z G L L L J H t O : &X&X&X&X&X&X&X&X&X&X&X&X&X&X&X&X&X&X",
"&X&X&X&X&X&X&X&X&X&X&X&X&X&X&Xp v h 1.-.) 2.c.c.x.9.>.X.P 5 $ . & &X&X&X&X&X&X&X&X&X&X&X&X&X&X&X&X&X",
"&X&X&X&X&X&X&X&X&X&X&X&X&X&X&XM f ) h.f.6.c.S.].D.A.v.8.%.S e % . - &X&X&X&X&X&X&X&X&X&X&X&X&X&X&X&X",
"&X&X&X&X&X&X&X&X&X&X&X&X&X&Xs k c _ 7.S.C.b.n.D..X.X}.~.b.} 7 4 % , &X&X&X&X&X&X&X&X&X&X&X&X&X&X&X&X",
"&X&X&X&X&X&X&X&X&X&X&X&X&X&Xb ! &.=.>.<.q.w.T.E.~. XXXXXf.+.c q = , N &X&X&X&X&X&X&X&X&X&X&X&X&X&X&X",
"&X&X&X&X&X&X&X&X&X&X&X&X&X&XM ^ &.;.,.:.t.L.^.(.(._.oX].p.4.] 3 n I B &X&X&X&X&X&X&X&X&X&X&X&X&X&X&X",
"&X&X&X&X&X&X&X&X&X&X&X&X&X&Xb / >.q.w.v.y.R././.).).^.g.-.{ c z K Y B &X&X&X&X&X&X&X&X&X&X&X&X&X&X&X",
"&X&X&X&X&X&X&X&X&X&X&X&X&X&Xs / q.A.^.^.R.U.Q.`.`.P.1.} ! c q H Y T &X&X&X&X&X&X&X&X&X&X&X&X&X&X&X&X",
"&X&X&X&X&X&X&X&X&X&X&X&X&X&X&X..8.Y.T.T.T.W.I.I.0.O.[ S e 6 w C T U &X&X&X&X&X&X&X&X&X&X&X&X&X&X&X&X",
"&X&X&X&X&X&X&X&X&X&X&X&X&X&X&XC r.y.T./. X X.X'.j.[ D Z 4 + 9 U U &X&X&X&X&X&X&X&X&X&X&X&X&X&X&X&X&X",
"&X&X&X&X&X&X&X&X&X&X&X&X&X&X&X&XV m ..0.A.S.j.M.B.| Z A 4 o @ , &X&X&X&X&X&X&X&X&X&X&X&X&X&X&X&X&X&X",
"&X&X&X&X&X&X&X&X&X&X&X&X&X&X&X&X&XJ.C E ` 5.` ( ' W < #   X ; &X&X&X&X&X&X&X&X&X&X&X&X&X&X&X&X&X&X&X",
"&X1 &X5 z &X&X&X&X&Xo.4.k.N.d.&Xm. X+XK.G.e.M g /  .C R i.OX!.&X&X&X&X&X&X&X&X&X&X&X&X&X&X&X&X&X&X&X",
"&X&X&X&X&X&X&X&X&X&X&X@.&X&Xa.k.C.V.}.@X%X$X#X[.J.H.&X&X&X&X&X&X&X&X&X&X&X&X&X&X&X&X&X&X&X&X&X&X&X&X",
"&X&X&X&X&X&X&X&X&X&X&X&X&X&X$.d.f.Z.V.C.{.|.|.&X&X&X&X&X&X&X&X&X&X&X&X&X&X&X&X&X&X&X&X&X&X&X&X&X&X&X",
"&X&X&X&X&X&X&X&X&X&X&X&X&X&X#.#.s.s.d.z.&X&X&X&X&X&X&X&X&X&X&X&X&X&X&X&X&X&X&X&X&X&X&X&X&X&X&X&X&X&X",
"&X&X&X&X&X&X&X&X&X&X&X&X&X&X&X&X&X&X&X&X&X&X&X&X&X&X&X&X&X&X&X&X&X&X&X&X&X&X&X&X&X&X&X&X&X&X&X&X&X&X",
"&X&X&X&X&X&X&X&X&X&X&X&X&X&X&X&X&X&X&X&X&X&X&X&X&X&X&X&X&X&X&X&X&X&X&X&X&X&X&X&X&X&X&X&X&X&X&X&X&X&X",
"&X&X&X&X&X&X&X&X&X&X&X&X&X&X&X&X&X&X&X&X&X&X&X&X&X&X&X&X&X&X&X&X&X&X&X&X&X&X&X&X&X&X&X&X&X&X&X&X&X&X",
"&X&X&X&X&X&X&X&X&X&X&X&X&X&X&X&X&X&X&X&X&X&X&X&X&X&X&X&X&X&X&X&X&X&X&X&X&X&X&X&X&X&X&X&X&X&X&X&X&X&X",
"&X&X&X&X&X&X&X&X&X&X&X&X&X&X&X&X&X&X&X&X&X&X&X&X&X&X&X&X&X&X&X&X&X&X&X&X&X&X&X&X&X&X&X&X&X&X&X&X&X&X",
"&X&X&X&X&X&X&X&X&X&X&X&X&X&X&X&X&X&X&X&X&X&X&X&X&X&X&X&X&X&X&X&X&X&X&X&X&X&X&X&X&X&X&X&X&X&X&X&X&X&X",
"&X&X&X&X&X&X&X&X&X&X&X&X&X&X&X&X&X&X&X&X&X&X&X&X&X&X&X&X&X&X&X&X&X&X&X&X&X&X&X&X&X&X&X&X&X&X&X&X&X&X",
"&X&X&X&X&X&X&X&X&X&X&X&X&X&X&X&X&X&X&X&X&X&X&X&X&X&X&X&X&X&X&X&X&X&X&X&X&X&X&X&X&X&X&X&X&X&X&X&X&X&X",
"&X&X&X&X&X&X&X&X&X&X&X&X&X&X&X&X&X&X&X&X&X&X&X&X&X&X&X&X&X&X&X&X&X&X&X&X&X&X&X&X&X&X&X&X&X&X&X&X&X&X",
"&X&X&X&X&X&X&X&X&X&X&X&X&X&X&X&X&X&X&X&X&X&X&X&X&X&X&X&X&X&X&X&X&X&X&X&X&X&X&X&X&X&X&X&X&X&X&X&X&X&X",
"&X&X&X&X&X&X&X&X&X&X&X&X&X&X&X&X&X&X&X&X&X&X&X&X&X&X&X&X&X&X&X&X&X&X&X&X&X&X&X&X&X&X&X&X&X&X&X&X&X&X",
"&X&X&X&X&X&X&X&X&X&X&X&X&X&X&X&X&X&X&X&X&X&X&X&X&X&X&X&X&X&X&X&X&X&X&X&X&X&X&X&X&X&X&X&X&X&X&X&X&X&X",
"&X&X&X&X&X&X&X&X&X&X&X&X&X&X&X&X&X&X&X&X&X&X&X&X&X&X&X&X&X&X&X&X&X&X&X&X&X&X&X&X&X&X&X&X&X&X&X&X&X&X",
"&X&X&X&X&X&X&X&X&X&X&X&X&X&X&X&X&X&X&X&X&X&X&X&X&X&X&X&X&X&X&X&X&X&X&X&X&X&X&X&X&X&X&X&X&X&X&X&X&X&X",
"&X&X&X&X&X&X&X&X&X&X&X&X&X&X&X&X&X&X&X&X&X&X&X&X&X&X&X&X&X&X&X&X&X&X&X&X&X&X&X&X&X&X&X&X&X&X&X&X&X&X"
};
