/* XPM */
static char *result[] = {
/* columns rows colors chars-per-pixel */
"50 50 213 2 ",
"   c None",
".  c #000000",
"X  c #0A0D0F",
"o  c #1C0800",
"O  c #1B1B1B",
"+  c #131211",
"@  c #320000",
"#  c #2D2600",
"$  c #000026",
"%  c #000037",
"&  c #091E2E",
"*  c #1A282B",
"=  c #132032",
"-  c #242424",
";  c #2B2B2B",
":  c #333333",
">  c #3B3B3B",
",  c #2D333A",
"<  c #4A0000",
"1  c #510D00",
"2  c #5E3E1D",
"3  c #57382A",
"4  c #3D423B",
"5  c #744D00",
"6  c #7B5900",
"7  c #7A5500",
"8  c #68511E",
"9  c #694C0D",
"0  c #696900",
"q  c #484438",
"w  c #644D25",
"e  c #67503A",
"r  c #796C39",
"t  c #000243",
"y  c #001F40",
"u  c #00375B",
"i  c #093955",
"p  c #27354F",
"a  c #4F3D41",
"s  c #3B444E",
"d  c #014D75",
"f  c #094263",
"g  c #345672",
"h  c #444444",
"j  c #4B4B4B",
"k  c #484846",
"l  c #4D5152",
"z  c #555554",
"x  c #5B5B5B",
"c  c #5D5655",
"v  c #655553",
"b  c #6A554C",
"n  c #7C7B44",
"m  c #706C48",
"M  c #585865",
"N  c #596263",
"B  c #656464",
"V  c #6B6B6B",
"C  c #75716A",
"Z  c #737373",
"A  c #7B7B7B",
"S  c #757979",
"D  c #6B7176",
"F  c #906400",
"G  c #916F0D",
"H  c #8D692A",
"J  c #856B34",
"K  c #957731",
"L  c #B07F33",
"P  c #825E49",
"I  c #8F6C4A",
"U  c #846B5B",
"Y  c #9B755C",
"T  c #957E41",
"R  c #9C7E6C",
"E  c #886C64",
"W  c #7A8651",
"Q  c #B08610",
"!  c #9A9B3E",
"~  c #A9873A",
"^  c #B28635",
"/  c #D2A00E",
"(  c #C49736",
")  c #CEA037",
"_  c #F1BA39",
"`  c #908D51",
"'  c #AA8743",
"]  c #B38E45",
"[  c #B4B758",
"{  c #988168",
"}  c #858573",
"|  c #8E8A7B",
" . c #9B9776",
".. c #A78769",
"X. c #B58F6E",
"o. c #A88974",
"O. c #BA977D",
"+. c #A2987B",
"@. c #99A867",
"#. c #BBB768",
"$. c #B8BA76",
"%. c #A7AD64",
"&. c #C69A46",
"*. c #CCA24B",
"=. c #D8AD51",
"-. c #D2AE4E",
";. c #E5B959",
":. c #F3BC58",
">. c #E0AF44",
",. c #CC9B73",
"<. c #BCC15E",
"1. c #FDC55D",
"2. c #F5C65D",
"3. c #D6D778",
"4. c #D0C96D",
"5. c #FEC761",
"6. c #FECB64",
"7. c #FECD6A",
"8. c #F2C767",
"9. c #FFD26C",
"0. c #FCD66E",
"q. c #E6D87C",
"w. c #FEDA74",
"e. c #FEDE7A",
"r. c #FAD573",
"t. c #E3CC73",
"y. c #E4E47C",
"u. c #FFE27D",
"i. c #065884",
"p. c #747886",
"a. c #009EA4",
"s. c #7B838C",
"d. c #45A09C",
"f. c #67B2AA",
"g. c #838384",
"h. c #8C8C8C",
"j. c #878589",
"k. c #949494",
"l. c #9C9C9C",
"z. c #93908F",
"x. c #A0968A",
"c. c #B9AB98",
"v. c #9FA1A3",
"b. c #A4A4A4",
"n. c #ADADAC",
"m. c #A6A4A7",
"M. c #AAAEB2",
"N. c #B3B3B4",
"B. c #BBBBBC",
"V. c #B3B4BC",
"C. c #ACB3AD",
"Z. c #D6B499",
"A. c #D0AC8F",
"S. c #E5BB9D",
"D. c #E5B797",
"F. c #6FC0A0",
"G. c #72C1A2",
"H. c #78C3A6",
"J. c #E6E689",
"K. c #FEE681",
"L. c #FFE984",
"P. c #FFEE89",
"I. c #F4E484",
"U. c #FFF38D",
"Y. c #F5F08E",
"T. c #EEF292",
"R. c #FFF792",
"E. c #FDFB96",
"W. c #FFFF9A",
"Q. c #F3F997",
"!. c #F0EF90",
"~. c #D8D6BB",
"^. c #C4C3B6",
"/. c #EDC2A3",
"(. c #E5C2A8",
"). c #F4C5A4",
"_. c #FBCBA9",
"`. c #FFD1AF",
"'. c #FFD5B2",
"]. c #FEDCB9",
"[. c #FFFFA2",
"{. c #FFE1BE",
"}. c #BFC3C5",
"|. c #C3C3C4",
" X c #CBCCCC",
".X c #C4C7C9",
"XX c #DEDEC2",
"oX c #D5DAC0",
"OX c #C9CCD1",
"+X c #CFD2D5",
"@X c #D3D3D3",
"#X c #DBDBDB",
"$X c #D7D7DE",
"%X c #DFE1C6",
"&X c #E8E8CA",
"*X c #FDE4C2",
"=X c #F8E9CA",
"-X c #EBEED1",
";X c #F1EFD1",
":X c #FDFDDD",
">X c #F9F5D5",
",X c #DCDBE2",
"<X c #DFE2E5",
"1X c #E5E5E5",
"2X c #ECECEC",
"3X c #E3E7EA",
"4X c #FFFFE3",
"5X c #FFFFEA",
"6X c #ECECF0",
"7X c #F3F3F3",
"8X c #FEFEFE",
"9X c #F5F7FA",
"0X c #EEF1F4",
/* pixels */
"F.F.F.F.F.F.F.F.F.F.F.F.F.F.F.F.F.F.F.F.F.F.F.F.F.F.F.F.F.F.F.F.F.F.F.F.F.F.F.F.F.F.F.F.F.F.F.F.F.F.",
"F.F.F.F.F.F.F.F.F.F.F.F.F.F.F.F.F.F.F.F.F.F.F.F.F.F.F.F.F.F.F.F.F.F.F.F.F.F.F.F.F.F.F.F.F.F.F.F.F.F.",
"F.F.F.F.F.F.F.F.F.F.F.F.F.F.F.F.b.v.F.F.F.F.F.F.F.F.F.F.F.F.F.F.F.F.F.F.F.F.F.F.F.F.F.F.F.F.F.F.F.F.",
"F.F.F.F.F.F.F.G.H.H.F.F.F.F.F.F.F.F.F.F.F.F.F.F.F.F.F.F.F.F.F.F.F.F.F.F.F.F.F.F.F.F.F.F.F.F.F.F.F.F.",
"F.F.F.F.8X1X6X8X8X8XF.F.F.F.F.F.F.F.8X8XF.F.F.F.F.F.F.F.F.F.F.F.F.F.F.F.F.F.F.F.F.F.F.F.F.F.F.F.F.F.",
"F.F.F.F.8XA 8 S k.V.$X7X9X8XF.F.F.F.9X|.8XF.F.F.F.F.F.F.F.F.F.F.F.F.F.F.F.F.F.F.F.F.F.F.F.F.F.F.F.F.",
"F.F.F.F.F.OXQ 7.4.<.! ` } n.$X6X8X  #X# v.8XF.F.F.F.F.F.F.F.F.F.F.F.F.F.F.F.F.8X8XF.F.F.F.F.F.F.F.F.",
"F.F.F.F.F.7Xq :.w.U.W.W.E.y.4.$.n.2XOX3.-.j.8X  8X8X8X8X8XF.F.F.F.F.F.F.F.7X#Xn.#X8XF.F.F.F.F.F.F.F.",
"F.F.F.F.F.8X}.@ 7.1.6.e.R.[.[.[.3.q M 3.W.F s.@Xb.c.| @X8XF.F.F.F.F.8X7X@Xb.#X8XN.N.8X8XF.F.F.F.F.F.",
"F.F.F.F.F.F.7X& G 0.6.5.6.9.e.K.W.!.. 4.W.w.5 6 _ 2.. #XF.F.F.F.8X7X Xl. X8X8X8X8X@Xh.7X8XF.F.F.F.F.",
"F.F.F.F.F.F.8X7X. &.6.7.9.0.w.L.E.[.J.J.W.u.6.7.L.3.j.8XF.F.8X2X.Xl. X8X8X8X8X8X8X8X7Xh.n.8X8XF.F.F.",
"F.F.8X6X9X9X,Xm.= n I.E.E.W.W.W.W.W.W.W.W.L.1.0.W.#.p.B.9X1XN.b.#X8X8X8X8X8X8X2X1X9X8X8X|.V 2X8XF.F.",
"F.F.7X{ .. .@.[ J.W.W.W.W.W.W.W.W.W.W.W.W.L.7.E.W.!.y.! p N.2X8X8X8X8X7X#X8X8X@X1X8X X X8X1X. B.8XF.",
"F.F.8Xx._ 0.U.W.W.W.W.W.W.W.W.W.W.W.W.W.W.u.U.W.W.W.W.[.0 N.8X8X8X2X2X@X@X8X8X7X1Xn.k.k.z A @X7X#XF.",
"F.F.F.+XF 0.0.K.U.W.W.W.W.W.W.W.W.W.W.W.E.u.W.W.W.W.E.W.!.. V.9X#X.X1X X1X8X7XN.k.l.g.- b.1X7X2X@XF.",
"F.F.F.8Xs.Q 0.6.9.w.K.U.W.W.W.K.E.W.R.E.u.u.W.W.W.W.W.W.W.q.5 S ^. X7X1X7X8X1Xk.k.- B #X7X7X@XF.F.F.",
"F.F.F.F.7X. =.9.1.6.1.w.W.E.7.w.W.L.6.R.u.W.W.E.R.P.u.0.9.8.2 B  X2X2XN.7X8X@X: . .X8X8X7X1XF.F.F.F.",
"F.F.F.F.8X1X. t.U.e.6.P.W.w.6.E.U.2.6.K.P.e.L.w.9.6.9.u.E.Q.W p.+X1XN.b.8X X. j.9X8XF.F.F.F.F.F.F.F.",
"F.F.F.8X8Xs.%.Y.u.6.6.E.U.:.#.W.;.e ' w.7.:.u.4.^ r.K.L.L.L.L.;.@ M.B.k.V . #X8XF.F.F.F.F.F.F.F.F.F.",
"F.F.F.8XS F L.9.5.6.T !.u.L $.r.P ).b Q w w 8.J.@.' 9.5.1.1.6.&.j B.x . n.9X8XF.F.F.F.F.F.F.F.F.F.F.",
"F.F.8Xb.. L H ] 0.&.@.U.*.m q.I /.*XZ.v /.R 6 W.!.' 6.2.9.9.*.i V . A 2X8XF.F.F.F.F.F.F.F.F.F.F.F.F.",
"F.F.8X2X#XOX% *.9.r I.&.. n ` S.].:X4X4X{.D.. r.J.1 m  .>.w.] . k #X8XF.F.F.F.F.F.F.F.F.F.F.F.F.F.F.",
"F.F.F.F.8X<X5 0.;.` ~ E O.. S.'.>X4X>X~.~.'.v *.=.C &X=X+./ 8 B.8X8XF.F.F.F.F.F.F.F.F.F.F.F.F.F.F.F.",
"F.F.F.F.8Xg.>.7.8.. U /.O.R Y =X5XXX| XXXXS.o.K ~ (.o.S.c.s.8X8XF.F.F.F.F.F.F.F.F.F.F.F.F.F.F.F.F.F.",
"F.F.F.F.0X6 G 8 6.=.X.).4 * F.4X4X-X} q . A./.. { `.Z.'...3XF.F.F.F.F.F.F.F.F.F.F.F.F.F.F.F.F.F.F.F.",
"F.F.F.8X@X. M.C :.9.H *XG.d.:X4X:X5X&Xa.f.*X`.b S.A.X.,.g.8XF.F.F.F.F.F.F.F.F.F.F.F.F.F.F.F.F.F.F.F.",
"F.F.F.8X8X1X8Xz.7 K ( C.5X;X:X:X4X5X4XoX-X=X_./._.z.}.N.8X  7X7X8XF.F.F.F.F.F.F.F.F.F.F.F.F.F.F.F.F.",
"F.F.F.F.8X  8Xb.* D ) J %X5X:X:X-X&X>X4X4X].`.]... X8X      |.. N.8XF.F.F.F.F.F.F.F.F.F.F.F.F.F.F.F.",
"F.F.F.F.F.F.F.#X#X3XH *.$ ~.4X5X&X~.;X5X>X'._.Y .X8X    8X X; Z . #XF.F.F.F.F.F.F.F.F.F.F.F.F.F.F.F.",
"F.F.F.F.F.F.F.8X8X7XN J < . } ^.%X-X&X~.A.o.q . l..X@X.Xk.; B V z A 9XF.F.F.F.F.F.F.F.F.F.F.F.F.F.F.",
"F.F.F.F.F.F.8X8X|.v 1 . v h.. . 3 . o a % . k V . . . X k V V V B z 2XF.F.F.F.F.F.F.F.F.F.F.F.F.F.F.",
"F.F.F.F.F.8X8Xl . < v n.G.|.. Z.`.e o x u b.Z - > V Z Z x h h k B h @XF.F.F.F.F.F.F.F.F.F.F.F.F.F.F.",
"F.F.F.F.F.F.9Xj.c  X7X8X8XM.I ).U D . u g B s . O . ; z z h > ; : x z B.9XF.F.F.F.F.F.F.F.F.F.F.F.F.",
"F.F.F.F.F.F.F.8X9X8XF.F.F.B.. A 3XN.t ; l i.d t h.B.j . O h : : : : x . 7XF.F.F.F.F.F.F.F.F.F.F.F.F.",
"F.F.F.F.F.F.F.F.F.F.F.F.F.8X7X8X8XV $ p & f g t z.8Xg.. > . : > : > ; h.8XF.F.F.F.F.F.F.F.F.F.F.F.F.",
"F.F.F.F.F.F.F.F.F.F.F.F.F.F.F.8X7X. & d i # x X x S : > @XN.. . h h . 2XF.F.F.F.F.F.F.F.F.F.F.F.F.F.",
"F.F.F.F.F.F.F.F.F.F.F.F.F.F.F.8X@X. , . . M z + . - S . N.8X#XZ . . B.8XF.F.F.F.F.F.F.F.F.F.F.F.F.F.",
"F.F.F.F.F.F.F.F.F.F.F.F.F.F.F.8XZ : V V h . - : : > x z V 9X  9X|.#X8XF.F.F.F.F.F.F.F.F.F.F.F.F.F.F.",
"F.F.F.F.F.F.F.F.F.F.F.F.F.F.8X@X. V : . k > . O > j z V . 9XF.F.F.F.F.F.F.F.F.F.F.F.F.F.F.F.F.F.F.F.",
"F.F.F.F.F.F.F.F.F.F.F.F.F.F.2X. x O A #XV k > - . > S x z 7XF.F.F.F.F.F.F.F.F.F.F.F.F.F.F.F.F.F.F.F.",
"F.F.F.F.F.F.F.F.F.F.F.F.F.F.7Xk.. . h #Xn.: z : 1Xk.. . #X8XF.F.F.F.F.F.F.F.F.F.F.F.F.F.F.F.F.F.F.F.",
"F.F.F.F.F.F.F.F.F.F.F.F.F.F.F.8X2XA . k.B.: z A 8X8X#XN.8XF.F.F.F.F.F.F.F.F.F.F.F.F.F.F.F.F.F.F.F.F.",
"F.F.F.F.F.F.F.F.F.F.F.F.F.F.F.F.8X8X#X2XB.> : B.F.F.8X8XF.F.F.F.F.F.F.F.F.F.F.F.F.F.F.F.F.F.F.F.F.F.",
"F.F.F.F.F.F.F.F.F.F.F.F.F.F.F.F.F.F.8X8XN.h . #XF.F.F.F.F.F.F.F.F.F.F.F.F.F.F.F.F.F.F.F.F.F.F.F.F.F.",
"F.F.F.F.F.F.F.F.F.F.F.F.F.F.F.F.F.F.8X#XO x z 9XF.F.F.F.F.F.F.F.F.F.F.F.F.F.F.F.F.F.F.F.F.F.F.F.F.F.",
"F.F.F.F.F.F.F.F.F.F.F.F.F.F.F.F.F.F.F.1Xz . @X8XF.F.F.F.F.F.F.F.F.F.F.F.F.F.F.F.F.F.F.F.F.F.F.F.F.F.",
"F.F.F.F.F.F.F.F.F.F.F.F.F.F.F.F.F.F.F.F.7X#X8XF.F.F.F.F.F.F.F.F.F.F.F.F.F.F.F.F.F.F.F.F.F.F.F.F.F.F.",
"F.F.F.F.F.F.F.F.F.F.F.F.F.F.F.F.F.F.F.F.F.F.F.F.F.F.F.F.F.F.F.F.F.F.F.F.F.F.F.F.F.F.F.F.F.F.F.F.F.F.",
"F.F.F.F.F.F.F.F.F.F.F.F.F.F.F.F.F.F.F.F.F.F.F.F.F.F.F.F.F.F.F.F.F.F.F.F.F.F.F.F.F.F.F.F.F.F.F.F.F.F.",
"F.F.F.F.F.F.F.F.F.F.F.F.F.F.F.F.F.F.F.F.F.F.F.F.F.F.F.F.F.F.F.F.F.F.F.F.F.F.F.F.F.F.F.F.F.F.F.F.F.F."
};
