/* XPM */
static char *result[] = {
/* columns rows colors chars-per-pixel */
"50 50 244 2 ",
"   c #010101",
".  c #0A0503",
"X  c #090709",
"o  c #140708",
"O  c #19120A",
"+  c #020315",
"@  c #061214",
"#  c #1C1514",
"$  c #0D100F",
"%  c #251A1A",
"&  c #2D0E0B",
"*  c #162C1C",
"=  c #14301E",
"-  c #0D2F16",
";  c #2D2319",
":  c #35251B",
">  c #05072A",
",  c #10132C",
"<  c #2A1C26",
"1  c #32182F",
"2  c #1A2B24",
"3  c #1A3723",
"4  c #06322F",
"5  c #2B2422",
"6  c #262825",
"7  c #35252A",
"8  c #372829",
"9  c #24392A",
"0  c #383737",
"q  c #303431",
"w  c #472D16",
"e  c #793A1B",
"r  c #6F381F",
"t  c #463329",
"y  c #543B2A",
"u  c #432D36",
"i  c #453434",
"p  c #4C3B39",
"a  c #493837",
"s  c #553D39",
"d  c #4E2D29",
"f  c #673A28",
"g  c #7E1520",
"h  c #174532",
"j  c #2D4434",
"k  c #354C3B",
"l  c #354538",
"z  c #2A5237",
"x  c #36543E",
"c  c #4D413B",
"v  c #53433C",
"b  c #5A4339",
"n  c #5D4127",
"m  c #78442C",
"M  c #785535",
"N  c #6B4935",
"B  c #7F571F",
"V  c #3B3D40",
"C  c #513841",
"Z  c #483A40",
"A  c #3A4543",
"S  c #3C5845",
"D  c #3A6A4F",
"F  c #275E5B",
"G  c #4B4B4B",
"H  c #464444",
"J  c #554541",
"K  c #5C4A45",
"L  c #5C4C4C",
"P  c #554647",
"I  c #56514D",
"U  c #5B4D51",
"Y  c #4C5454",
"T  c #545454",
"R  c #585758",
"E  c #475650",
"W  c #614E47",
"Q  c #65524C",
"!  c #6A554D",
"~  c #6D5848",
"^  c #775C47",
"/  c #695652",
"(  c #6D5A54",
")  c #635755",
"_  c #715D56",
"`  c #755E58",
"'  c #7A4942",
"]  c #4C6652",
"[  c #516656",
"{  c #4B7656",
"}  c #506E55",
"|  c #696459",
" . c #756159",
".. c #796459",
"X. c #766A54",
"o. c #567369",
"O. c #636465",
"+. c #6B6A69",
"@. c #64696C",
"#. c #647A69",
"$. c #747574",
"%. c #7B7B7B",
"&. c #767B79",
"*. c #74706A",
"=. c #575F66",
"-. c #953B07",
";. c #8C1A23",
":. c #9A1623",
">. c #A43618",
",. c #FD3232",
"<. c #F73432",
"1. c #F22E2D",
"2. c #E41E24",
"3. c #957208",
"4. c #874727",
"5. c #934E2C",
"6. c #A7552F",
"7. c #88633C",
"8. c #B86211",
"9. c #C6510A",
"0. c #DE6136",
"q. c #895C41",
"w. c #8A6847",
"e. c #856958",
"r. c #957755",
"t. c #966D4F",
"y. c #A67755",
"u. c #AE734C",
"i. c #887668",
"p. c #957766",
"a. c #877C74",
"s. c #A97A68",
"d. c #D06D51",
"f. c #EF4A44",
"g. c #4D815B",
"h. c #568664",
"j. c #67866E",
"k. c #6C8673",
"l. c #728C79",
"z. c #6D9378",
"x. c #A98821",
"c. c #F7EB07",
"v. c #CDC007",
"b. c #AC835A",
"n. c #868678",
"m. c #978676",
"M. c #9C826E",
"N. c #A88565",
"B. c #BB9364",
"V. c #A68A79",
"C. c #BA967A",
"Z. c #AA8E77",
"A. c #C58A5C",
"S. c #C59A68",
"D. c #CA906D",
"F. c #CEA574",
"G. c #DCAC73",
"H. c #FA9E63",
"J. c #28788B",
"K. c #5271B0",
"L. c #676B8B",
"P. c #4F70C7",
"I. c #8D70A5",
"U. c #927584",
"Y. c #3A8388",
"T. c #7C9B84",
"R. c #7A8383",
"E. c #659F98",
"W. c #58D1A7",
"Q. c #5BEEAE",
"!. c #73FAB6",
"~. c #6AFFBC",
"^. c #6BA7D4",
"/. c #848484",
"(. c #8C8C8C",
"). c #898886",
"_. c #958D88",
"`. c #9B938B",
"'. c #9C9C9C",
"]. c #959594",
"[. c #87968C",
"{. c #A99786",
"}. c #B29D89",
"|. c #A49C97",
" X c #AC978D",
".X c #85A98E",
"XX c #89A792",
"oX c #90AF98",
"OX c #8AB498",
"+X c #B5A28D",
"@X c #B5A899",
"#X c #ACA295",
"$X c #98B6A0",
"%X c #85A7A0",
"&X c #ABAAAA",
"*X c #A3A4A4",
"=X c #B4ACA4",
"-X c #B4B4B3",
";X c #BAB9B8",
":X c #A8BBAD",
">X c #C79D87",
",X c #CCA18C",
"<X c #C2AD95",
"1X c #DBAB94",
"2X c #C8B299",
"3X c #D4AB95",
"4X c #E3B19A",
"5X c #EAB39A",
"6X c #C7B9A9",
"7X c #C5BDB3",
"8X c #D4B9A4",
"9X c #E9BBA5",
"0X c #F2BEA5",
"qX c #A8CAB1",
"wX c #92F6BF",
"eX c #9EC0A7",
"rX c #CCC3B7",
"tX c #D7C9B9",
"yX c #CEC3AC",
"uX c #F6C4AC",
"iX c #E6D4BD",
"pX c #F7D2B6",
"aX c #80B8CE",
"sX c #C6C4C0",
"dX c #D6D2CA",
"fX c #EBDAC6",
"gX c #EDDCCA",
"hX c #E5D4C3",
"jX c #F6DDC8",
"kX c #E9DED3",
"lX c #F7E2CE",
"zX c #ECE3D8",
"xX c #F5E9DC",
"cX c #FBEBDC",
"vX c #F8E5D5",
"bX c #FCEEE1",
"nX c #F1ECE6",
"mX c #FEF2E5",
"MX c #FFF6EA",
"NX c #FFF9EC",
"BX c #FEFEFA",
"VX c #FAF8F4",
"CX c #E5E6E7",
"ZX c #6FC0A0",
/* pixels */
"ZXZXZXZXZXZXZXZXZXZXZXZXZXZXZXZXZXZXZXZXZXZXZXZXZXZXZXZXZXZXZXZXZXZXZXZXZXZXZXZXZXZXZXZXZXZXZXZXZXZX",
"ZXZXZXZXZXZXZXZXZXZXZXZXZXZXZXZXZXZXP Q Q Q / / / i # v J v i ZXZXZXZXZXZXZXZXZXZXZXZXZXZXZXZXZXZXZX",
"ZXZXZXZXZXZXZXZXZXZXZXZXZXZXZXw.~ (  . . . .(  . .Q !  . . . ./ v ZXZXZXZXZXZXZXZXZXZXZXZXZXZXZXZXZX",
"ZXZXZXZXZXZXZXZXZXZXZXZXZXZXb.e. ._ (  .(  .( (  ./ /  .( _ ` X.e.C.ZXZXZXZXZXZXZXZXZXZXZXZXZXZXZXZX",
"ZXZXZXZXZXZXZXZXZXZXZXZXB.B. ./ ( _ _ _ ( _  .( ( v ( _ _ ( ..{.<XlXBXiXZXZXZXZXZXZXZXZXZXZXZXZXZXZX",
"ZXZXZXZXZXZXZXZXZXZXZXS.N.I /  .(  ._ ( _ _ / ..i a ` ( _ ( Q ..e.C.iXB.t.4 ZXZXZXZXZXZXZXZXZXZXZXZX",
"ZXZXZXZXZXZXZXZXZXZXB.N.U  . .( _ ( ( _ _ L ^ p   K _ _ _ _ W 5 C i.@XL y.^ D j.l.[.oXZXZXZXZXZXZXZX",
"ZXZXZXZXZXZXZXZXZXF.C.L  ._ Q / ( .._  .L b.G.r.+ W _ ( _ _ _ 8 # ! M. .^ F.| - h x #.[.$X$XZXZXZXZX",
"ZXZXZXZXZXZXZXZXZXS.U  .( / K / e.N.( L y.S.U F.N 1 _ / L  . .v   u v ` ! 8X+XX j j 3 - ] eXqXZXZXZX",
"ZXZXZXZXZXZXZXZXF.i./ (  .v / ) B.p.) W S.../ ~ c A p _ K v  .L   % u Q L w.A.+ [ j j k 3 . $XqXZXZX",
"ZXZXZXZXZXZXZXZXN.( _ _ Q t I ^ S./ P r.N.) ! R (.&X%.O ( 8 K v     < c / Z A.y h [ A 3 k k = z.ZXZX",
"ZXZXZXZXZXZXZXt.../ (  .p ; + M N.L 8 r. .Q Z '.-X'.].  o c ; 8     . 8 W , s.7.4 l [ [ = k j k k.ZX",
"ZXZXZXZXZXZXZXy Q Q W P % %   : W %   Q ` o *.;XsX&X|.).l.$ &   X     o J , u.7.4 l = k.#.  j = l.T.",
"ZXZXZXZXZXZX$   Q J #   < i   O   .   p J . ].-X&X'.).)._.s   O         i > 7.M @ j q z .X#.h } ] XX",
"ZXZXZXZXZXZX    Q 8 o 5 a < w y.< 7 G $   0 L._.a.e.1X0XpX9X  @ 7 o     7 + n t   j j x g..X{ g.j..X",
"ZXZXZXZXZXZXM N P p C 8 i + M b., ) $.o o c 1X1X8XvXmXcXcXMX X  P 7     % o     ZX9 j S g.z.oXD T.ZX",
"ZXZXZXZXZXZXu.w.Z C C 7 < 4 i.t.> T ` s + >XjXkXvXsX(.I H `.6X& C u .   .   . . ZXZXj S h.D OXz.  ZX",
"ZXZXZXZXZXZXt.t.q p C 7   R a.M > >X5X^ 1 0XcXhXs..     5.  6 H u u   o       X ZXZX2 x g.{ T.$XZXZX",
"ZXZX<.<.ZXZXu.r.> u C 7   ) a.  s.jXvXp.d pXmX{.].'.  6 : 5 $ 0 p 8           X ZXZX* l { g.z.oXZXZX",
"ZX<.ZX,.,.ZXZXy.1 < s u   p.1X  >XcXVX}.f jXMXhXVX].  %     6 P 7 %   W ZX    X ZXZXZX9 k x } l.ZXZX",
"ZX,.ZXg 1.<.ZX7.J $ 7 a   C.uX; p.{.cXsX4.vXmXbXBX;X  5 %   n.)     ; 9Xa   o . ZXZXZXZX3 * E ZXZXZX",
"ZX,.1.;.:.ZXZXt p <   <   e.p.      p.zX{.vXmXbXmXmX`.y & {.7X  ;   C.uX+   X   ZXZXZXZXZXZXS k.ZXZX",
"ZXZX2.g ZXZXZXZX# 7 #     t U (.. b . dXvXbXmXmXmXmXMXkXgXMXa.    Q >X! #         . ZXZXZXx { XXZXZX",
"ZXZXZXZXZXZXZXZXZXX o .     O sXs     `.NXbXmXbXbXbXMXzXbX=X  8   s     %     . . ZXZXZXZX} h.$XZXZX",
"ZXZXZXZXZXZXZXZXZX.       6 . '.=X    @XMXnXmXMXmXMXbXkXdX$.{.d       O     .   ZXZXZXZXZXF .X$XZXZX",
"ZXG ZXZXZXZXZXZXZXZXZX. .   p.p.7X=X@XxXmXMXmXxXcXtXkXmXgXhXm.  Y 5 . X o ZXZXZXZXZX<.f.1.s.OXZXZXZX",
"ZXZX*X'.ZXZXZXZXZXZXZXZX. @   |.zXzXbXbXbXhXdXVXCX-XmXbXrXR G %./.$.ZXZXZXZXZXZXZX,.,.ZX2.f.ZXZXZXZX",
"ZXZX/.&X*XZXZXZXZXZXZXZXZXZX  4 kXbXbXmXMXkXkXBXnXzXtX{.0 G R R 0 /.ZXZXZXZXZXZXZX,.1.g ;.2.ZXZXZXZX",
"ZXZXZX$.(.&X&XZXZXZXZXZXZXZX6   (.xXnXmXMXNXbXtX@Xj.$ J I q 0 G | |.(.ZXZXZXZXBXZXZXd.>.:.ZXZXZXZXZX",
"ZXZXZXZX+.%.'.%.ZXZXZXZXZXZXZX2     Y +.ZXZX Xa.  z k 0 q Z G T L.*X(.ZXZXZXZXVXZXZXZXZXZXZXZXZXZXZX",
"ZXZXZXZXR &.T G o ZXZXZXZXZXU.0 % # ZXZXZXi.4X+.O.A  .u.L Y H H &.*XZXZXZXZXZXZXZXZXZXZXZXZXZXZXZXZX",
"ZXZXZXZXZXI 0 +.(.T ZXZXZX/.].l ZXZXZXZX/ ` l.{ [ D ) ' Z _.O.A Y R   ZXZXZXwXwX!.ZXZXZXZXZXZXZXZXZX",
"ZXZXZXZXZXZXZXZX).oX@.ZX).].Y ZXZXZXt.u.5.& D ] z D 3 h o.7X<XV.i.M.6Xl.ZXQ.wXdX~.ZXZXZXZXZXZXZXZXZX",
"ZXZXZXZXc.ZXZXZXZXa.).&.).) ZX7.5.q.u.6.4.d 6 2 3 j z.k.S |.fXfXiXiXjX7XZX~.Q.L.E.Q.ZXZXZXZXZXZXZXZX",
"ZXZXc.ZX3.v.ZXZXZXZX&.%X( 9.4.p s -.-.ZXZXZXO E Y j A l   $.xXgXfXfXgXcXU.ZXW.J.Y.ZXZXZXZXZXZXZXZXZX",
"ZXZXZXc.x.ZXZXZXZX&.(.T 4.f f e p 5.ZXZXZXZXE Y A ,   l x = #XfXfXfXfXlX7XZXZXZXZXZXZXZXZXZXZXZXZXZX",
"ZXZXZXZXZXZXZXZX+.oX@.ZX4.f i w & ZXZXZXZX' e.6X#XC.4X#.h l ZXM.gXgXfXfXvXZXZXZXZXZXZXZXZXZXZXZXZXZX",
"ZXZXZXZXZXZXZX+.|.O.ZXZXZXr r O.O.ZXZXZXs.D.d.u.a. X1X} z - ZXZX@XlXfXfXlX=XZXZXZXZXZXZXZXZXZXZXZXZX",
"ZXZXZXZXZX/.0 (.+.ZXZXZXZXZXZXU.U.Y '.e D.D.D.6.s @.Y i.| +XZXZXi.lXgXfXlXyXZXZXZXZXZXZXZXZXZXZXZXZX",
"ZXZXZXZX'.-X$.H ZXZXZXZXZXZXZXZXG /.-X+.u.D.s.6.y , a `.+X@X*.ZXZX2XgXgXtX#X(.&.ZXZXZXZXZXZXZXZXZXZX",
"ZXZXZXZX&X].%.[ ZXZXZXI.I.ZXZXZXO.O.=.@Xr.6.-.5.m.v c Z.Z.@X+XZXZXZ.lXlX=X=.+.R ZXZXZXZXZXZXZXZXZXZX",
"ZXZXZX'.&XG m.ZXZXZXI.L.ZXZXZXZXZX(.9X}.e.p.s.<XtX+Xb ,Xm.6X+XZXZXi.yXiX`.q G 0 ZXZX^.'.yXZXZXZXZXZX",
"ZXZXZX*XY ;XcXZXZXZXZXZXZXZXZXZXtXMXlX5X..7XfXiXiXZ.m.~ +X8XZXZXZX..tX3X{.@.$.$.ZXZX^.K.E.ZXZXZXZXZX",
"ZXZX]._.dXVXpXZXZXZXZXZXZXZXZXdXBXMXlXpXZ.n.tXtXtX=XZ.Z.yXZ.ZXZXZXZX-XkX3X}.m.ZXZXZX^.P.K.ZXZXZXZXZX",
"ZXZXG ZXZXZXZXZXZXZXZXZXZXZXZXVXbXjXuX4XM.n.tXtXyX<Xm.n.m.ZXZXZXZXZXZX&XhXiX! ZXZXZXZXZXZXZXZXZXZXZX",
"ZXZXZXZXZXZXZXZXZXZXZXZXZXZXZX1X9X4X4X1XV.Z.Z.@X+X+Xt.ZXZXZXZXZXZXZXZXZXZXZXZXZXZXZXZXZXZXZXZXZXZXZX",
"ZXZXZXZXZXZXZXZXZXZXZXZXZXZXZXZXZXZXZXZXZXZXZXt.t.-.8.ZXZXZXZXZXZXZXZXZXZXZXZXZXZXZXZXZXZXZXZXZXZXZX",
"ZXZXZXZXZXZXZXZXZXZXZXZXZXZXZXZXZXZXZXZXZXZXd.H.9.-.4.ZXZXZXZXZXZXZXZXZXZXZXZXZXZXZXZXZXZXZXZXZXZXZX",
"ZXZXZXZXZXZXZXZXZXZXZXZXZXZXZXZXZXZXZXZXZXZXu.H.d.8.B ZXZXZXZXZXZXZXZXZXZXZXZXZXZXZXZXZXZXZXZXZXZXZX",
"ZXZXZXZXZXZXZXZXZXZXZXZXZXZXZXZXZXZXZXZXZXZXb.F.x.3.ZXZXZXZXZXZXZXZXZXZXZXZXZXZXZXZXZXZXZXZXZXZXZXZX"
};
